<svg width="16" height="16" viewBox="0 0 16 16" fill="none" xmlns="http://www.w3.org/2000/svg">
  <path d="M13.451 5.609L13.035 7.256C12.856 8.082 12.157 8.651 11.363 8.651H6.31C5.729 8.651 5.263 8.235 5.188 7.668L4.51 2.472L3.133 1.757C3.042 1.71 3.021 1.591 3.093 1.523L4.588 0.028C4.641 -0.025 4.731 -0.01 4.766 0.056L7.264 4.206C7.61 4.806 7.322 5.551 6.683 5.78L6.477 5.853C5.883 6.062 5.549 6.642 5.63 7.256L6.137 10.528C6.17 10.798 6.402 11 6.675 11H11.343C11.997 11 12.547 10.495 12.607 9.847L13.089 5.494C13.12 5.208 13.329 4.994 13.615 4.958L14.14 4.895C14.489 4.851 14.773 5.167 14.689 5.507L13.451 5.609Z" fill="#424242"/>
</svg>
